<svg xmlns="http://www.w3.org/2000/svg" width="600" height="600" viewBox="0 0 600 600"><title>腎臟解剖圖</title><style>text{font-family:Arial,sans-serif;font-size:12px;}</style><rect width="600" height="600" fill="#f9f9f9"/><path d="M300,100 C450,150 500,300 450,450 C400,550 200,550 150,450 C100,300 150,150 300,100" fill="#e57373" stroke="#c62828" stroke-width="3"/><path d="M300,150 C400,200 450,300 400,450 C350,500 250,500 200,450 C150,300 200,200 300,150" fill="#ef9a9a" stroke="#c62828" stroke-width="1"/><path d="M300,200 C350,220 400,300 350,400 C320,450 280,450 250,400 C200,300 250,220 300,200" fill="#ffcdd2" stroke="#c62828" stroke-width="1"/><path d="M300,250 C330,270 350,300 320,350 C300,370 280,370 260,350 C230,300 270,270 300,250" fill="#ffffff" stroke="#c62828" stroke-width="1"/><path d="M280,350 L280,500 L320,500 L320,350" fill="#ffcdd2" stroke="#c62828" stroke-width="1"/><path d="M150,350 C180,380 220,380 250,350 C280,320 280,280 250,250 C220,220 180,220 150,250 C120,280 120,320 150,350" fill="#b71c1c" stroke="#c62828" stroke-width="1"/><path d="M450,350 C420,380 380,380 350,350 C320,320 320,280 350,250 C380,220 420,220 450,250 C480,280 480,320 450,350" fill="#b71c1c" stroke="#c62828" stroke-width="1"/><line x1="150" y1="270" x2="100" y2="200" stroke="#0277bd" stroke-width="10"/><line x1="450" y1="270" x2="500" y2="200" stroke="#d32f2f" stroke-width="10"/><text x="110" y="180" fill="#0277bd">腎動脈</text><text x="460" y="180" fill="#d32f2f">腎靜脈</text><text x="100" y="300" fill="#b71c1c">腎小球</text><text x="450" y="300" fill="#b71c1c">腎小球</text><text x="330" y="170" fill="#e57373">腎皮質</text><text x="330" y="270" fill="#ffcdd2">腎髓質</text><text x="330" y="350" fill="#ffffff">腎盂</text><text x="330" y="470" fill="#ffcdd2">輸尿管</text></svg>
